<mxfile host="app.diagrams.net" modified="2023-05-18T13:25:50.827Z" agent="Mozilla/5.0 (Windows NT 10.0; Win64; x64) AppleWebKit/537.36 (KHTML, like Gecko) Chrome/113.0.0.0 Safari/537.36 Edg/113.0.1774.42" etag="8Dvojbbsgg8nhhhnppgU" version="21.3.2" type="github">
  <diagram name="第 1 页" id="u5KUGt1_WBTlGuTNsJAg">
    <mxGraphModel dx="1149" dy="663" grid="1" gridSize="10" guides="1" tooltips="1" connect="1" arrows="1" fold="1" page="1" pageScale="1" pageWidth="827" pageHeight="1169" background="none" math="0" shadow="0">
      <root>
        <mxCell id="0" />
        <mxCell id="1" parent="0" />
        <mxCell id="BdLklPp7F2nc4_-LSeA5-5" value="&lt;font style=&quot;font-size: 24px;&quot;&gt;A&lt;/font&gt;" style="ellipse;whiteSpace=wrap;html=1;aspect=fixed;strokeWidth=5;strokeColor=#1d2ad7;shadow=0;opacity=80;snapToPoint=1;fixDash=0;metaEdit=0;backgroundOutline=0;" vertex="1" parent="1">
          <mxGeometry x="200" y="160" width="80" height="80" as="geometry" />
        </mxCell>
        <mxCell id="BdLklPp7F2nc4_-LSeA5-6" value="&lt;font style=&quot;font-size: 24px;&quot;&gt;D&lt;/font&gt;" style="ellipse;whiteSpace=wrap;html=1;aspect=fixed;strokeWidth=5;strokeColor=#1d2ad7;shadow=0;opacity=80;snapToPoint=1;fixDash=0;metaEdit=0;backgroundOutline=0;" vertex="1" parent="1">
          <mxGeometry x="480" y="370" width="80" height="80" as="geometry" />
        </mxCell>
        <mxCell id="BdLklPp7F2nc4_-LSeA5-7" value="&lt;font style=&quot;font-size: 24px;&quot;&gt;C&lt;/font&gt;" style="ellipse;whiteSpace=wrap;html=1;aspect=fixed;strokeWidth=5;strokeColor=#1d2ad7;shadow=0;opacity=80;snapToPoint=1;fixDash=0;metaEdit=0;backgroundOutline=0;" vertex="1" parent="1">
          <mxGeometry x="200" y="370" width="80" height="80" as="geometry" />
        </mxCell>
        <mxCell id="BdLklPp7F2nc4_-LSeA5-8" value="&lt;font style=&quot;font-size: 24px;&quot;&gt;B&lt;/font&gt;" style="ellipse;whiteSpace=wrap;html=1;aspect=fixed;strokeWidth=5;strokeColor=#1d2ad7;shadow=0;opacity=80;snapToPoint=1;fixDash=0;metaEdit=0;backgroundOutline=0;" vertex="1" parent="1">
          <mxGeometry x="480" y="160" width="80" height="80" as="geometry" />
        </mxCell>
        <mxCell id="BdLklPp7F2nc4_-LSeA5-9" value="" style="endArrow=none;html=1;rounded=0;exitX=1;exitY=0.5;exitDx=0;exitDy=0;entryX=0;entryY=0.5;entryDx=0;entryDy=0;strokeWidth=5;strokeColor=#1d2ad7;shadow=0;opacity=80;snapToPoint=1;fixDash=0;metaEdit=0;backgroundOutline=0;endFill=0;startArrow=classic;startFill=1;" edge="1" parent="1">
          <mxGeometry width="50" height="50" relative="1" as="geometry">
            <mxPoint x="278" y="190" as="sourcePoint" />
            <mxPoint x="478.0000000000002" y="190" as="targetPoint" />
            <Array as="points">
              <mxPoint x="338" y="190" />
            </Array>
          </mxGeometry>
        </mxCell>
        <mxCell id="BdLklPp7F2nc4_-LSeA5-10" value="" style="endArrow=classic;html=1;rounded=0;exitX=0.5;exitY=1;exitDx=0;exitDy=0;strokeWidth=5;strokeColor=#1d2ad7;shadow=0;opacity=80;snapToPoint=1;fixDash=0;metaEdit=0;backgroundOutline=0;endFill=1;" edge="1" parent="1">
          <mxGeometry width="50" height="50" relative="1" as="geometry">
            <mxPoint x="512" y="240" as="sourcePoint" />
            <mxPoint x="512.1666666666667" y="370.3333333333335" as="targetPoint" />
          </mxGeometry>
        </mxCell>
        <mxCell id="BdLklPp7F2nc4_-LSeA5-11" value="" style="endArrow=classic;html=1;rounded=0;exitX=0.5;exitY=1;exitDx=0;exitDy=0;entryX=0.5;entryY=0;entryDx=0;entryDy=0;strokeWidth=5;strokeColor=#1d2ad7;shadow=0;opacity=80;snapToPoint=1;fixDash=0;metaEdit=0;backgroundOutline=0;endFill=1;" edge="1" parent="1">
          <mxGeometry width="50" height="50" relative="1" as="geometry">
            <mxPoint x="232" y="240" as="sourcePoint" />
            <mxPoint x="232" y="370" as="targetPoint" />
          </mxGeometry>
        </mxCell>
        <mxCell id="BdLklPp7F2nc4_-LSeA5-12" value="" style="endArrow=classic;html=1;rounded=0;entryX=0;entryY=1;entryDx=0;entryDy=0;strokeWidth=5;strokeColor=#1d2ad7;shadow=0;opacity=80;snapToPoint=1;fixDash=0;metaEdit=0;backgroundOutline=0;endFill=1;" edge="1" parent="1">
          <mxGeometry width="50" height="50" relative="1" as="geometry">
            <mxPoint x="264.5" y="377" as="sourcePoint" />
            <mxPoint x="487.7157287525381" y="223.28427124746167" as="targetPoint" />
          </mxGeometry>
        </mxCell>
        <mxCell id="BdLklPp7F2nc4_-LSeA5-13" value="" style="endArrow=classic;html=1;rounded=0;exitX=1;exitY=1;exitDx=0;exitDy=0;strokeWidth=5;strokeColor=#1d2ad7;shadow=0;opacity=80;snapToPoint=1;fixDash=0;metaEdit=0;backgroundOutline=0;endFill=1;" edge="1" parent="1">
          <mxGeometry width="50" height="50" relative="1" as="geometry">
            <mxPoint x="277.2842712474619" y="220.2842712474619" as="sourcePoint" />
            <mxPoint x="500.8333333333335" y="374" as="targetPoint" />
          </mxGeometry>
        </mxCell>
        <mxCell id="BdLklPp7F2nc4_-LSeA5-14" value="" style="endArrow=classic;html=1;rounded=0;exitX=1;exitY=0.5;exitDx=0;exitDy=0;entryX=0;entryY=0.5;entryDx=0;entryDy=0;strokeWidth=5;strokeColor=#1d2ad7;shadow=0;opacity=80;snapToPoint=1;fixDash=0;metaEdit=0;backgroundOutline=0;endFill=1;" edge="1" parent="1">
          <mxGeometry width="50" height="50" relative="1" as="geometry">
            <mxPoint x="280" y="405.5" as="sourcePoint" />
            <mxPoint x="480" y="405.5" as="targetPoint" />
          </mxGeometry>
        </mxCell>
        <mxCell id="BdLklPp7F2nc4_-LSeA5-23" value="" style="endArrow=classic;html=1;rounded=0;exitX=1;exitY=0.5;exitDx=0;exitDy=0;entryX=0;entryY=0.5;entryDx=0;entryDy=0;strokeWidth=5;strokeColor=#1d2ad7;shadow=0;opacity=80;snapToPoint=1;fixDash=0;metaEdit=0;backgroundOutline=0;endFill=1;edgeStyle=orthogonalEdgeStyle;curved=1;" edge="1" parent="1">
          <mxGeometry width="50" height="50" relative="1" as="geometry">
            <mxPoint x="280" y="210" as="sourcePoint" />
            <mxPoint x="480" y="210" as="targetPoint" />
            <Array as="points">
              <mxPoint x="380" y="210.42" />
              <mxPoint x="380" y="210.42" />
            </Array>
          </mxGeometry>
        </mxCell>
        <mxCell id="BdLklPp7F2nc4_-LSeA5-24" value="" style="endArrow=none;html=1;rounded=0;exitX=0.5;exitY=1;exitDx=0;exitDy=0;entryX=0.5;entryY=0;entryDx=0;entryDy=0;strokeWidth=5;strokeColor=#1d2ad7;shadow=0;opacity=80;snapToPoint=1;fixDash=0;metaEdit=0;backgroundOutline=0;endFill=0;startArrow=classic;startFill=1;" edge="1" parent="1">
          <mxGeometry width="50" height="50" relative="1" as="geometry">
            <mxPoint x="250" y="241" as="sourcePoint" />
            <mxPoint x="250" y="371" as="targetPoint" />
          </mxGeometry>
        </mxCell>
        <mxCell id="BdLklPp7F2nc4_-LSeA5-25" value="" style="endArrow=none;html=1;rounded=0;exitX=0.5;exitY=1;exitDx=0;exitDy=0;strokeWidth=5;strokeColor=#1d2ad7;shadow=0;opacity=80;snapToPoint=1;fixDash=0;metaEdit=0;backgroundOutline=0;endFill=0;startArrow=classic;startFill=1;" edge="1" parent="1">
          <mxGeometry width="50" height="50" relative="1" as="geometry">
            <mxPoint x="530" y="240" as="sourcePoint" />
            <mxPoint x="530" y="370" as="targetPoint" />
          </mxGeometry>
        </mxCell>
        <mxCell id="BdLklPp7F2nc4_-LSeA5-26" value="" style="endArrow=none;html=1;rounded=0;exitX=1;exitY=1;exitDx=0;exitDy=0;strokeWidth=5;strokeColor=#1d2ad7;shadow=0;opacity=80;snapToPoint=1;fixDash=0;metaEdit=0;backgroundOutline=0;endFill=0;startArrow=classic;startFill=1;" edge="1" parent="1">
          <mxGeometry width="50" height="50" relative="1" as="geometry">
            <mxPoint x="261" y="234" as="sourcePoint" />
            <mxPoint x="485" y="388" as="targetPoint" />
          </mxGeometry>
        </mxCell>
        <mxCell id="BdLklPp7F2nc4_-LSeA5-27" value="" style="endArrow=none;html=1;rounded=0;entryX=0;entryY=1;entryDx=0;entryDy=0;strokeWidth=5;strokeColor=#1d2ad7;shadow=0;opacity=80;snapToPoint=1;fixDash=0;metaEdit=0;backgroundOutline=0;endFill=0;startArrow=classic;startFill=1;" edge="1" parent="1">
          <mxGeometry width="50" height="50" relative="1" as="geometry">
            <mxPoint x="275" y="388" as="sourcePoint" />
            <mxPoint x="498" y="234" as="targetPoint" />
          </mxGeometry>
        </mxCell>
        <mxCell id="BdLklPp7F2nc4_-LSeA5-28" value="" style="endArrow=none;html=1;rounded=0;exitX=1;exitY=0.5;exitDx=0;exitDy=0;entryX=0;entryY=0.5;entryDx=0;entryDy=0;strokeWidth=5;strokeColor=#1d2ad7;shadow=0;opacity=80;snapToPoint=1;fixDash=0;metaEdit=0;backgroundOutline=0;endFill=0;startArrow=classic;startFill=1;" edge="1" parent="1">
          <mxGeometry width="50" height="50" relative="1" as="geometry">
            <mxPoint x="280" y="419.5" as="sourcePoint" />
            <mxPoint x="480" y="419.5" as="targetPoint" />
          </mxGeometry>
        </mxCell>
      </root>
    </mxGraphModel>
  </diagram>
</mxfile>
